<svg xmlns="http://www.w3.org/2000/svg" fill="none" viewBox="0 0 47 40"><path fill="#6366f1" d="M23.5 6.5c-6 0-9.75 3-11.25 9 2.25-3 4.88-4.13 7.88-3.38 1.7.43 2.93 1.67 4.28 3.05C26.62 17.4 29.17 20 34.75 20c6 0 9.75-3 11.25-9-2.25 3-4.88 4.13-7.88 3.38-1.7-.43-2.93-1.67-4.28-3.05C31.63 9.1 29.08 6.5 23.5 6.5ZM12.25 20c-6 0-9.75 3-11.25 9 2.25-3 4.88-4.13 7.88-3.38 1.7.43 2.93 1.67 4.28 3.05 2.21 2.24 4.76 4.83 10.34 4.83 6 0 9.75-3 11.25-9-2.25 3-4.88 4.13-7.88 3.38-1.7-.43-2.93-1.67-4.28-3.05C20.38 22.6 17.83 20 12.25 20Z"/></svg>